<?xml version="1.0" encoding="UTF-8"?>
<svg width="752pt" height="752pt" version="1.1" viewBox="0 0 752 752" xmlns="http://www.w3.org/2000/svg">
 <path d="m463.45 353.42c-8.8398-40.156-44.668-70.312-87.438-70.312-42.777 0-78.605 30.156-87.445 70.312-31.281 0.66797-56.539 26.27-56.539 57.707 0 31.859 25.918 57.773 57.773 57.773h172.43c31.859 0 57.762-25.918 57.762-57.773-0.003906-31.438-25.254-57.047-56.543-57.707zm-1.2227 96.531h-172.43c-21.41 0-38.828-17.418-38.828-38.828 0-20.27 15.625-36.938 35.461-38.648 0 0.074219-0.007812 0.14844-0.007812 0.22266v13.812c0 5.2266 4.2422 9.4727 9.4727 9.4727 5.2344 0 9.4727-4.2422 9.4727-9.4727v-13.812c0-38.957 31.688-70.645 70.648-70.645 38.953 0 70.641 31.688 70.641 70.645v3.9883h0.039062c-0.007812 0.11719-0.039062 0.23047-0.039062 0.35156v9.4727c0 5.2266 4.2383 9.4727 9.4727 9.4727 5.2266 0 9.4727-4.2422 9.4727-9.4727v-13.812c0-0.074218-0.007812-0.14844-0.007812-0.22266 19.832 1.7109 35.461 18.379 35.461 38.648-0.011719 21.418-17.422 38.828-38.828 38.828z" fill="#354259"/>
</svg>
