<?xml version="1.0" encoding="UTF-8"?>
<svg width="752pt" height="752pt" version="1.1" viewBox="0 0 752 752" xmlns="http://www.w3.org/2000/svg">
 <g fill="#354259">
  <path d="m463.45 292c-8.8516-40.164-44.668-70.316-87.449-70.316-42.77 0-78.594 30.152-87.445 70.316-31.281 0.66406-56.539 26.262-56.539 57.699 0 31.859 25.918 57.773 57.773 57.773h28.027v82.898c0 5.2266 4.2422 9.4727 9.4727 9.4727 5.2344 0 9.4727-4.2422 9.4727-9.4727l-0.007813-82.895h78.48v82.898c0 5.2266 4.2383 9.4727 9.4727 9.4727 5.2266 0 9.4727-4.2422 9.4727-9.4727v-82.898h28.035c31.859 0 57.773-25.918 57.773-57.773 0-31.441-25.262-57.047-56.539-57.703zm-1.2305 96.531h-172.43c-21.41 0-38.828-17.418-38.828-38.828 0-20.27 15.633-36.938 35.473-38.648 0 0.074219-0.007813 0.14062-0.007813 0.21875v13.812c0 5.2266 4.2383 9.4727 9.4727 9.4727 5.2266 0 9.4727-4.2422 9.4727-9.4727v-9.4727l-0.007813-4.3477c0-38.953 31.688-70.641 70.641-70.641s70.641 31.688 70.641 70.641v3.9922c0.007813 0 0.027344 0 0.039063-0.003906 0 0.11719-0.039063 0.23828-0.039063 0.35547v9.4727c0 5.2266 4.2422 9.4727 9.4727 9.4727 5.2344 0 9.4727-4.2422 9.4727-9.4727v-9.4688l-0.003906-4.3477c0-0.074219-0.007813-0.14062-0.007813-0.21875 19.84 1.7031 35.473 18.379 35.473 38.648-0.003906 21.418-17.418 38.836-38.832 38.836z"/>
  <path d="m376 418.64c-5.2344 0-9.4727 4.2422-9.4727 9.4727v92.742c0 5.2266 4.2383 9.4727 9.4727 9.4727 5.2266 0 9.4727-4.2422 9.4727-9.4727v-92.742c0-5.2344-4.2422-9.4727-9.4727-9.4727z"/>
 </g>
</svg>
