<?xml version="1.0" encoding="UTF-8"?>
<svg width="752pt" height="752pt" version="1.1" viewBox="0 0 752 752" xmlns="http://www.w3.org/2000/svg">
 <g fill="#354259">
  <path d="m501.8 360.34c0-37.211-30.277-67.484-67.484-67.484-30.598 0-56.375 20.512-64.602 48.48-11.008-4.8438-23.145-7.5898-35.926-7.5898-42.77 0-78.594 30.156-87.445 70.312-31.281 0.66797-56.539 26.27-56.539 57.707 0 31.859 25.918 57.773 57.773 57.773h172.43c31.859 0 57.773-25.918 57.773-57.773 0-15.461-6.1328-29.496-16.07-39.859 23.578-10.523 40.09-34.117 40.09-61.566zm-81.793 140.25h-172.43c-21.41 0-38.828-17.418-38.828-38.828 0-20.27 15.633-36.938 35.473-38.648 0 0.074219-0.007812 0.14844-0.007812 0.22266v13.812c0 5.2266 4.2383 9.4727 9.4727 9.4727 5.2266 0 9.4727-4.2422 9.4727-9.4727v-1.668l-0.007812-7.8125v-4.3398c0-38.957 31.688-70.645 70.641-70.645s70.641 31.688 70.641 70.645v3.9883h0.039062c0 0.11719-0.039062 0.23047-0.039062 0.35156v9.4727c0 5.2266 4.2422 9.4727 9.4727 9.4727 5.2344 0 9.4727-4.2422 9.4727-9.4727v-6.4922l-0.003906-2.9805v-4.3398c0-0.074219-0.007812-0.14844-0.007812-0.22266 19.84 1.7109 35.473 18.379 35.473 38.648-0.003906 21.418-17.422 38.836-38.832 38.836zm21.562-92.312c-6.3086-2.5508-13.152-4.0664-20.332-4.2227-4.7539-21.578-17.344-40.203-34.566-52.879 4.3008-22.395 24.012-39.379 47.648-39.379 26.766 0 48.543 21.781 48.543 48.543-0.007813 24.297-17.961 44.418-41.293 47.938z"/>
  <path d="m434.32 279.04c5.2266 0 9.4727-4.2422 9.4727-9.4727v-27.625c0-5.2266-4.2422-9.4727-9.4727-9.4727-5.2344 0-9.4727 4.2422-9.4727 9.4727v27.625c0.003906 5.2344 4.2422 9.4727 9.4727 9.4727z"/>
  <path d="m552.72 350.86h-27.629c-5.2266 0-9.4727 4.2383-9.4727 9.4727 0 5.2266 4.2422 9.4727 9.4727 9.4727h27.629c5.2266 0 9.4727-4.2422 9.4727-9.4727 0-5.2344-4.2422-9.4727-9.4727-9.4727z"/>
  <path d="m505.2 302.85 19.535-19.535c3.6992-3.6992 3.6875-9.6992 0-13.395-3.6992-3.7031-9.6953-3.6992-13.395 0l-19.535 19.531c-3.6992 3.6992-3.6992 9.6953 0 13.398 3.6992 3.6953 9.6953 3.6953 13.395 0z"/>
  <path d="m505.21 417.83c-3.6992-3.6992-9.6953-3.6992-13.402 0-3.6875 3.6953-3.6875 9.6992 0 13.395l19.535 19.531c3.6992 3.6992 9.7031 3.6992 13.395 0 3.707-3.6992 3.6992-9.6953 0-13.395z"/>
  <path d="m363.44 302.85c3.6992 3.6992 9.6953 3.6953 13.395 0 3.6992-3.7031 3.6992-9.6953 0-13.398l-19.535-19.535c-3.6992-3.6953-9.6953-3.6992-13.395 0-3.6992 3.6953-3.6992 9.6992 0 13.395z"/>
 </g>
</svg>
