<?xml version="1.0" encoding="UTF-8"?>
<svg width="752pt" height="752pt" version="1.1" viewBox="0 0 752 752" xmlns="http://www.w3.org/2000/svg">
 <g fill="#354259">
  <path d="m376 308.52c-37.211 0-67.484 30.277-67.484 67.484 0 37.211 30.277 67.488 67.484 67.488 37.211 0 67.488-30.277 67.488-67.488 0-37.207-30.277-67.484-67.488-67.484zm0 116.03c-26.766 0-48.543-21.773-48.543-48.543 0-26.758 21.773-48.543 48.543-48.543 26.77 0.003907 48.543 21.785 48.543 48.543 0 26.77-21.773 48.543-48.543 48.543z"/>
  <path d="m376 294.7c5.2266 0 9.4727-4.2422 9.4727-9.4727v-27.625c0-5.2266-4.2422-9.4727-9.4727-9.4727-5.2344 0-9.4727 4.2422-9.4727 9.4727v27.625c0.003906 5.2344 4.2422 9.4727 9.4727 9.4727z"/>
  <path d="m376 457.3c-5.2344 0-9.4727 4.2422-9.4727 9.4727l0.003906 27.629c0 5.2266 4.2383 9.4727 9.4727 9.4727 5.2266 0 9.4727-4.2422 9.4727-9.4727v-27.629c-0.003906-5.2266-4.2461-9.4727-9.4766-9.4727z"/>
  <path d="m494.4 366.53h-27.625c-5.2266 0-9.4727 4.2383-9.4727 9.4727 0 5.2266 4.2422 9.4727 9.4727 9.4727h27.625c5.2266 0 9.4727-4.2422 9.4727-9.4727-0.003906-5.2344-4.2461-9.4727-9.4727-9.4727z"/>
  <path d="m294.7 376c0-5.2344-4.2383-9.4727-9.4727-9.4727h-27.629c-5.2266 0-9.4727 4.2383-9.4727 9.4727 0 5.2266 4.2422 9.4727 9.4727 9.4727h27.629c5.2344 0 9.4727-4.2422 9.4727-9.4727z"/>
  <path d="m446.88 318.51 19.531-19.535c3.6992-3.6992 3.6953-9.6992 0-13.395-3.6992-3.7031-9.6953-3.6992-13.395 0l-19.531 19.531c-3.6992 3.6992-3.7031 9.6953 0 13.398 3.6953 3.6992 9.6953 3.6992 13.395 0z"/>
  <path d="m305.12 433.49-19.535 19.535c-3.6953 3.6992-3.7031 9.6953 0 13.395 3.6953 3.6992 9.6992 3.6992 13.395 0l19.535-19.527c3.6992-3.6992 3.6953-9.7031 0-13.402-3.7031-3.7031-9.6953-3.6914-13.395 0z"/>
  <path d="m446.89 433.5c-3.6992-3.6992-9.6953-3.6992-13.398 0-3.6953 3.6875-3.6953 9.6953 0 13.395l19.535 19.527c3.6992 3.6992 9.6992 3.6992 13.395 0 3.7031-3.6992 3.6992-9.6953 0-13.395z"/>
  <path d="m305.12 318.51c3.6992 3.6992 9.6992 3.6953 13.395 0 3.7031-3.7031 3.7031-9.6953 0-13.398l-19.535-19.535c-3.6953-3.6953-9.6953-3.6992-13.395 0-3.6953 3.6953-3.6953 9.6992 0 13.395z"/>
 </g>
</svg>
