<?xml version="1.0" encoding="UTF-8"?>
<svg width="752pt" height="752pt" version="1.1" viewBox="0 0 752 752" xmlns="http://www.w3.org/2000/svg">
 <path d="m506.41 378.05c7.4727-25.734 7.8867-30.301 7.8867-30.301s25.32 24.074 32.168 7.6797c6.8516-16.398 4.5703-32.176-25.316-35.699l-0.625-7.0586s20.859-9.0273 19.195-12.344c-1.6602-3.3242-21.48-8.7188-21.48-8.7188s36.84-15.668 29.992-21.273c-6.8516-5.6055-40.996-1.2461-40.996-1.2461s-8.6133-21.48-37.875-22.309c-29.266-0.83203-39.434 11.41-36.738 13.699 2.6953 2.2812 18.676 5.5977 18.676 5.5977s-34.035 25.32-29.887 33.621c4.1523 8.3008 22-3.1094 22-3.1094s-21.793 33.207-9.3359 36.113c12.453 2.9102 22.207-19.098 22.207-19.098l15.359 12.871s-8.7148 32.176-41.922 34.457c-33.207 2.2812-53.551-22.832-49.402-48.984 4.1562-26.148 42.758-50.23 45.664-67.246 2.9023-17.02 12.453-78.66-63.93-93.188-76.375-14.531-129.92 44-141.55 90.906 0 0 40.27-23.246 66.832-16.605 0 0-76.379 22.004-71.395 116.23 0 0 39.434-41.922 56.449-38.602 0 0-41.508 70.152-23.246 119.96l24.906-34.043c13.676 36.48 37.629 58.703 65.18 69.332-2.8984 16.121-9.2617 42.398-12.898 57.008h-62.266l-45.812-53.25c-12.211-14.27-33.93 4.3164-21.719 18.582l42.152 49-42.152 48.992c-12.211 14.262 9.5078 32.852 21.719 18.582l45.812-53.246h249.57l-29.824 34.664c-12.203 14.262 9.5078 32.852 21.719 18.582l48.484-56.344c6.7305-5.6211 6.7305-16.844 0-22.465l-48.484-56.348c-12.211-14.27-33.926 4.3164-21.719 18.582l29.824 34.668h-94.07c-1.207-14.93 1.0391-41.547 2.4648-55.902 38.969-12.43 72.82-41.945 84.379-81.754zm-148.66 137.66c0.28125-2.1797 0.60547-4.7109 0.98438-7.6133 1.2812-9.793 9.6484-25.305 24.996-37.879 1.1797 15.785 3.1602 35.078 4.2734 45.492zm133.24-237.45c5.8047 0 10.516 4.7031 10.516 10.516 0 5.8047-4.7109 10.516-10.516 10.516-5.8047 0-10.516-4.7109-10.516-10.516 0-5.8125 4.7109-10.516 10.516-10.516z" fill="#354259" fill-rule="evenodd"/>
</svg>
